<svg xmlns="http://www.w3.org/2000/svg" width="108" height="52" viewBox="0 0 108 52"><defs><style>.a{fill:#174de1;stroke:#779a6c;font-size:30px;font-family:MicrosoftSansSerif, Microsoft Sans Serif;}.b{fill:#6cc14e;opacity:0.37;}.c{fill:#f6f604;stroke:rgba(87,0,201,0.61);opacity:0.56;}.d,.e{stroke:none;}.e{fill:#3041de;}.f{fill:none;}</style></defs><g transform="translate(-766 -491)"><text class="a" transform="translate(767 536)"><tspan x="0" y="0">Ex@mz</tspan></text><g class="b" transform="translate(767 504)"><path class="d" d="M 97.46888732910156 29.49999618530273 L 97.4688720703125 29.49999618530273 L 7.531125068664551 29.49999618530273 C 6.679612636566162 29.49999618530273 6.21797513961792 28.89935874938965 6.081375122070313 28.38499450683594 C 5.944787502288818 27.87064552307129 6.047599792480469 27.12010765075684 6.786912441253662 26.69764518737793 L 51.75579833984375 1.001145362854004 C 51.98206329345703 0.8718454241752625 52.23939895629883 0.803507924079895 52.5 0.803507924079895 C 52.76060104370117 0.803507924079895 53.01793670654297 0.8718454241752625 53.24420166015625 1.001145362854004 L 98.21307373046875 26.69764518737793 C 98.95230102539063 27.12005805969238 99.05508422851563 27.87058258056641 98.91848754882813 28.38493347167969 C 98.78189086914063 28.89932060241699 98.32027435302734 29.49999618530273 97.46888732910156 29.49999618530273 Z"/><path class="e" d="M 52.5 1.303495407104492 C 52.32626342773438 1.303495407104492 52.15471267700195 1.349058151245117 52.00386428833008 1.435256958007813 L 7.034988403320313 27.13177108764648 C 6.415390014648438 27.48582077026367 6.518325805664063 28.08229446411133 6.564628601074219 28.25666999816895 C 6.610939025878906 28.43104553222656 6.817489624023438 28.99999618530273 7.5311279296875 28.99999618530273 L 97.4688720703125 28.99999618530273 C 98.18251037597656 28.99999618530273 98.38906097412109 28.43104553222656 98.43537902832031 28.25666999816895 C 98.48167419433594 28.08229446411133 98.58460998535156 27.48582077026367 97.96501159667969 27.13175773620605 L 52.99611282348633 1.435256958007813 C 52.84527587890625 1.349058151245117 52.67372512817383 1.303495407104492 52.5 1.303495407104492 M 52.5 0.3034992218017578 C 52.84242248535156 0.3034992218017578 53.18484497070313 0.3913383483886719 53.49227523803711 0.5670204162597656 L 98.46115112304688 26.26352119445801 C 100.2418518066406 27.28105735778809 99.51979827880859 29.99999618530273 97.4688720703125 29.99999618530273 L 7.5311279296875 29.99999618530273 C 5.480201721191406 29.99999618530273 4.758148193359375 27.28105735778809 6.538848876953125 26.26352119445801 L 51.50772476196289 0.5670204162597656 C 51.81515502929688 0.3913383483886719 52.15757751464844 0.3034992218017578 52.5 0.3034992218017578 Z"/></g><g class="c" transform="translate(812 491)"><circle class="d" cx="7.5" cy="7.5" r="7.5"/><circle class="f" cx="7.5" cy="7.5" r="7"/></g></g></svg>